<svg xmlns="http://www.w3.org/2000/svg" viewBox="0 0 320 240" width="320" height="240">
<defs>
  <filter id="grain" x="0" y="0" width="100%" height="100%">
    <feTurbulence type="fractalNoise" baseFrequency="0.85" numOctaves="2" stitchTiles="stitch"/>
    <feColorMatrix type="saturate" values="0"/>
  </filter>
  <filter id="soft"><feGaussianBlur stdDeviation="3.2"/></filter>
  <filter id="soft2"><feGaussianBlur stdDeviation="7"/></filter>
  <radialGradient id="vig" cx="50%" cy="46%" r="72%">
    <stop offset="55%" stop-color="#000" stop-opacity="0"/>
    <stop offset="100%" stop-color="#1A1008" stop-opacity=".5"/>
  </radialGradient>
  <radialGradient id="lamp" cx="50%" cy="50%" r="50%">
    <stop offset="0%" stop-color="#FFE1A6" stop-opacity=".95"/>
    <stop offset="100%" stop-color="#FFE1A6" stop-opacity="0"/>
  </radialGradient>
  <linearGradient id="bgz" x1="0" y1="0" x2="1" y2="1">
    <stop offset="0%" stop-color="#EDE3D2"/><stop offset="100%" stop-color="#CFBFA6"/>
  </linearGradient>
</defs><rect width="320" height="240" fill="url(#bgz)"/><g filter="url(#soft)" opacity=".32"><ellipse cx="160" cy="212" rx="106" ry="15" fill="#6B5334"/></g><path d="M74 88l86-32 86 32-86 32z" fill="#B08A5E"/><path d="M74 88v84l86 34V122z" fill="#8A6740"/><path d="M246 88v84l-86 34V122z" fill="#6B4E2F"/><rect x="176" y="136" width="52" height="34" fill="#F5EEE0" transform="rotate(-9 176 136)"/><rect x="186" y="148" width="30" height="5" fill="#2F4034" transform="rotate(-9 186 148)"/><rect width="320" height="240" fill="url(#vig)"/><rect width="320" height="240" filter="url(#grain)" opacity=".17"/></svg>