<svg xmlns="http://www.w3.org/2000/svg" viewBox="0 0 640 360" width="640" height="360">
<defs>
  <filter id="grain" x="0" y="0" width="100%" height="100%">
    <feTurbulence type="fractalNoise" baseFrequency="0.85" numOctaves="2" stitchTiles="stitch"/>
    <feColorMatrix type="saturate" values="0"/>
  </filter>
  <filter id="soft"><feGaussianBlur stdDeviation="3.2"/></filter>
  <filter id="soft2"><feGaussianBlur stdDeviation="7"/></filter>
  <radialGradient id="vig" cx="50%" cy="46%" r="72%">
    <stop offset="55%" stop-color="#000" stop-opacity="0"/>
    <stop offset="100%" stop-color="#1A1008" stop-opacity=".5"/>
  </radialGradient>
  <radialGradient id="lamp" cx="50%" cy="50%" r="50%">
    <stop offset="0%" stop-color="#FFE1A6" stop-opacity=".95"/>
    <stop offset="100%" stop-color="#FFE1A6" stop-opacity="0"/>
  </radialGradient>
</defs><linearGradient id="wall" x1="0" y1="0" x2="0" y2="1"><stop offset="0%" stop-color="#3A2718"/><stop offset="100%" stop-color="#6E4C30"/></linearGradient><rect width="640" height="360" fill="url(#wall)"/><g filter="url(#soft)" opacity=".85"><rect x="24" y="52" width="250" height="12" fill="#2B1B10"/><rect x="40" y="16" width="30" height="36" fill="#C9A35F"/><rect x="84" y="8" width="30" height="44" fill="#9A6E3F"/><rect x="128" y="22" width="30" height="30" fill="#E7BE79"/><rect x="172" y="12" width="30" height="40" fill="#7A5334"/></g><path d="M470 0v40" stroke="#241608" stroke-width="3"/><circle cx="470" cy="56" r="120" fill="url(#lamp)" opacity=".55"/><circle cx="470" cy="52" r="12" fill="#FFE9BE"/><rect x="0" y="196" width="640" height="26" fill="#2B1B10"/><rect x="0" y="222" width="640" height="138" fill="#5A3C24"/><g opacity=".2"><rect x="0" y="250" width="640" height="3" fill="#E7D5B8"/><rect x="0" y="300" width="640" height="3" fill="#E7D5B8"/></g><path d="M96 160h56l-6 36h-44z" fill="#F7F2E8"/><ellipse cx="124" cy="161" rx="28" ry="5" fill="#2A170C"/><g fill="#221408"><rect x="150" y="238" width="16" height="92"/><rect x="124" y="226" width="68" height="14" rx="7"/><rect x="350" y="238" width="16" height="92"/><rect x="324" y="226" width="68" height="14" rx="7"/><rect x="550" y="238" width="16" height="92"/><rect x="524" y="226" width="68" height="14" rx="7"/></g><rect width="640" height="360" fill="url(#vig)"/><rect width="640" height="360" filter="url(#grain)" opacity=".17"/></svg>